<svg width="512" height="512" viewBox="0 0 512 512" fill="none" xmlns="http://www.w3.org/2000/svg">
<mask id="path-1-inside-1_308_3107" fill="white">
<path fill-rule="evenodd" clip-rule="evenodd" d="M223.428 503.897C100.746 487.935 6 383.032 6 256C6 205.869 20.7556 159.183 46.1606 120.051L151.242 302.057C168.963 342.306 209.2 370.407 256 370.407C274.555 370.407 292.078 365.99 307.575 358.15L223.428 503.897ZM242.007 505.615C246.639 505.871 251.304 506 256 506C394.071 506 506 394.071 506 256C506 221.426 498.982 188.491 486.292 158.542H315.955C348.628 178.685 370.407 214.799 370.407 256C370.407 283.965 360.373 309.587 343.71 329.461L242.007 505.615ZM56.9103 104.772C102.574 44.7484 174.762 6 256 6C352.843 6 436.826 61.065 478.345 141.593H251.763V141.67C192.004 143.846 143.94 191.855 141.677 251.591L56.9103 104.772L56.9103 104.772ZM254.983 349.483C306.069 349.483 347.483 308.069 347.483 256.983C347.483 205.897 306.069 164.483 254.983 164.483C203.897 164.483 162.483 205.897 162.483 256.983C162.483 308.069 203.897 349.483 254.983 349.483Z"/>
</mask>
<path d="M223.428 503.897L222.395 511.83L227.688 512.519L230.356 507.897L223.428 503.897ZM46.1606 120.051L53.0888 116.051L46.5603 104.743L39.4506 115.695L46.1606 120.051ZM151.242 302.057L158.564 298.833L158.388 298.434L158.17 298.057L151.242 302.057ZM307.575 358.15L314.503 362.15L327.936 338.884L303.964 351.011L307.575 358.15ZM242.007 505.615V497.615L241.567 513.603L242.007 505.615ZM486.292 158.542L493.658 155.421L491.591 150.542H486.292V158.542ZM315.955 158.542V150.542H287.734L311.757 165.352L315.955 158.542ZM343.71 329.461L337.579 324.321L337.131 324.856L336.781 325.461L343.71 329.461ZM242.007 505.615V513.615H246.626L248.935 509.615L242.007 505.615ZM56.9103 104.772L50.5434 99.9278L63.2719 109.622L56.9103 104.772ZM478.345 141.593V149.593H491.47L485.455 137.927L478.345 141.593ZM251.763 141.593V133.593H243.763V141.593H251.763ZM251.763 141.67L252.054 149.665L259.763 149.384V141.67H251.763ZM141.677 251.591L134.748 255.591L148.62 279.618L149.671 251.894L141.677 251.591ZM56.9103 104.772L63.8385 100.772L57.8324 90.3686L50.5487 99.9208L56.9103 104.772ZM224.46 495.964C105.712 480.514 14 378.961 14 256H-2C-2 387.103 95.7803 495.356 222.395 511.83L224.46 495.964ZM14 256C14 207.461 28.282 162.282 52.8706 124.407L39.4506 115.695C13.2292 156.085 -2 204.276 -2 256H14ZM39.2324 124.051L144.314 306.057L158.17 298.057L53.0888 116.051L39.2324 124.051ZM143.92 305.281C162.873 348.327 205.915 378.407 256 378.407V362.407C212.485 362.407 175.053 336.285 158.564 298.833L143.92 305.281ZM256 378.407C275.838 378.407 294.595 373.682 311.186 365.288L303.964 351.011C289.56 358.298 273.272 362.407 256 362.407V378.407ZM300.647 354.15L216.499 499.897L230.356 507.897L314.503 362.15L300.647 354.15ZM241.567 513.603C246.345 513.866 251.157 514 256 514V498C251.451 498 246.933 497.875 242.448 497.627L241.567 513.603ZM256 514C398.489 514 514 398.489 514 256H498C498 389.653 389.653 498 256 498V514ZM514 256C514 220.334 506.758 186.339 493.658 155.421L478.926 161.663C491.205 190.643 498 222.518 498 256H514ZM486.292 150.542H315.955L315.955 166.542H486.292V150.542ZM311.757 165.352C342.166 184.1 362.407 217.689 362.407 256H378.407C378.407 211.909 355.09 173.271 320.153 151.733L311.757 165.352ZM362.407 256C362.407 282.016 353.08 305.833 337.579 324.321L349.84 334.601C367.666 313.34 378.407 285.914 378.407 256H362.407ZM336.781 325.461L235.079 501.615L248.935 509.615L350.638 333.461L336.781 325.461ZM242.007 497.615V513.615V497.615ZM63.2773 109.615C107.493 51.4952 177.366 14 256 14V-2C172.158 -2 97.655 38.0017 50.5434 99.9278L63.2773 109.615ZM256 14C349.733 14 431.034 67.2881 471.234 145.259L485.455 137.927C442.618 54.842 355.954 -2 256 -2V14ZM478.345 133.593H251.763V149.593H478.345V133.593ZM243.763 141.593V141.67H259.763V141.593H243.763ZM251.472 133.676C187.527 136.004 136.104 187.368 133.682 251.288L149.671 251.894C151.776 196.342 196.481 151.688 252.054 149.665L251.472 133.676ZM148.605 247.591L63.8385 100.772L49.9821 108.772L134.748 255.591L148.605 247.591ZM50.5487 99.9208L50.5487 99.9208L63.2719 109.622L63.2719 109.622L50.5487 99.9208ZM254.983 357.483C310.488 357.483 355.483 312.488 355.483 256.983H339.483C339.483 303.651 301.651 341.483 254.983 341.483V357.483ZM355.483 256.983C355.483 201.478 310.488 156.483 254.983 156.483V172.483C301.651 172.483 339.483 210.315 339.483 256.983H355.483ZM254.983 156.483C199.478 156.483 154.483 201.478 154.483 256.983H170.483C170.483 210.315 208.315 172.483 254.983 172.483V156.483ZM154.483 256.983C154.483 312.488 199.478 357.483 254.983 357.483V341.483C208.315 341.483 170.483 303.651 170.483 256.983H154.483Z" fill="#EF3F36" mask="url(#path-1-inside-1_308_3107)"/>
</svg>
